<svg width="548" height="151" fill="none" xmlns="http://www.w3.org/2000/svg">
  <path d="M204.26 106.7c-4.947 0-9.427-1.073-13.44-3.22-3.967-2.193-7.093-5.203-9.38-9.03-2.24-3.827-3.36-8.143-3.36-12.95 0-4.807 1.143-9.123 3.43-12.95s5.413-6.813 9.38-8.96c4.013-2.193 8.493-3.29 13.44-3.29 4.013 0 7.677.7 10.99 2.1 3.313 1.4 6.113 3.43 8.4 6.09l-5.88 5.53c-3.547-3.827-7.91-5.74-13.09-5.74-3.36 0-6.37.747-9.03 2.24-2.66 1.447-4.737 3.477-6.23 6.09-1.493 2.613-2.24 5.577-2.24 8.89 0 3.313.747 6.277 2.24 8.89 1.493 2.613 3.57 4.667 6.23 6.16 2.66 1.447 5.67 2.17 9.03 2.17 5.18 0 9.543-1.937 13.09-5.81l5.88 5.6c-2.287 2.66-5.11 4.69-8.47 6.09-3.313 1.4-6.977 2.1-10.99 2.1zm50.044 0c-4.993 0-9.497-1.073-13.51-3.22-4.013-2.193-7.163-5.203-9.45-9.03-2.287-3.873-3.43-8.19-3.43-12.95s1.143-9.053 3.43-12.88c2.287-3.873 5.437-6.883 9.45-9.03 4.013-2.193 8.517-3.29 13.51-3.29s9.497 1.097 13.51 3.29c4.013 2.147 7.163 5.133 9.45 8.96 2.287 3.827 3.43 8.143 3.43 12.95 0 4.807-1.143 9.123-3.43 12.95s-5.437 6.837-9.45 9.03c-4.013 2.147-8.517 3.22-13.51 3.22zm0-7.98c3.267 0 6.207-.723 8.82-2.17a16.268 16.268 0 006.16-6.16c1.493-2.66 2.24-5.623 2.24-8.89 0-3.267-.747-6.207-2.24-8.82-1.493-2.66-3.547-4.713-6.16-6.16-2.613-1.493-5.553-2.24-8.82-2.24-3.267 0-6.207.747-8.82 2.24-2.613 1.447-4.667 3.5-6.16 6.16-1.493 2.613-2.24 5.553-2.24 8.82 0 3.267.747 6.23 2.24 8.89a16.268 16.268 0 006.16 6.16c2.613 1.447 5.553 2.17 8.82 2.17zM333.88 57v49h-7.49l-27.02-33.18V106h-9.03V57h7.49l27.02 33.18V57h9.03zm56.67 0v49h-7.49l-27.02-33.18V106h-9.03V57h7.49l27.02 33.18V57h9.03zm49.88 41.37V106h-36.75V57h35.77v7.63h-26.67v12.74h23.66v7.49h-23.66v13.51h27.65zm32.619 8.33c-4.947 0-9.427-1.073-13.44-3.22-3.967-2.193-7.093-5.203-9.38-9.03-2.24-3.827-3.36-8.143-3.36-12.95 0-4.807 1.143-9.123 3.43-12.95s5.413-6.813 9.38-8.96c4.013-2.193 8.493-3.29 13.44-3.29 4.013 0 7.677.7 10.99 2.1 3.313 1.4 6.113 3.43 8.4 6.09l-5.88 5.53c-3.547-3.827-7.91-5.74-13.09-5.74-3.36 0-6.37.747-9.03 2.24-2.66 1.447-4.737 3.477-6.23 6.09-1.493 2.613-2.24 5.577-2.24 8.89 0 3.313.747 6.277 2.24 8.89 1.493 2.613 3.57 4.667 6.23 6.16 2.66 1.447 5.67 2.17 9.03 2.17 5.18 0 9.543-1.937 13.09-5.81l5.88 5.6c-2.287 2.66-5.11 4.69-8.47 6.09-3.313 1.4-6.977 2.1-10.99 2.1zm37.573-42h-16.24V57h41.58v7.7h-16.24V106h-9.1V64.7z" fill="#F4F4F4"/>
  <circle cx="75.5" cy="75.5" r="75.5" fill="#F4F4F4"/>
  <path d="M64.272 80.764c0-8.253 3.467-14.944 7.743-14.944h6.195c4.277 0 7.744 6.691 7.744 14.944v55.292c0 8.253-3.467 14.944-7.744 14.944h-6.195c-4.276 0-7.743-6.691-7.743-14.944V80.764z" fill="#1C2B3C"/>
  <circle cx="74.5" cy="48.397" r="32.556" fill="#F4F4F4" stroke="#1C2B3C" stroke-width="10"/>
  <circle cx="75" cy="49" r="22" fill="#1C2B3C"/>
</svg>
