<svg height="512" width="512" xmlns="http://www.w3.org/2000/svg" >
  <path d="M428.332 135.275l-11.167-33.466a16.501 16.501 0 00-15.653-11.278H110.488a16.502 16.502 0 00-15.653 11.278l-11.167 33.466c-2.53 7.582 3.113 15.414 11.106 15.414h322.451c7.994 0 13.637-7.832 11.107-15.414zM135.615 491.767c1.28 11.519 11.016 20.233 22.606 20.233h193.718c11.59 0 21.326-8.715 22.606-20.233L409.11 180.69H101.05zM225.89 42.998c0-7.167 5.831-12.998 12.998-12.998h44.189c7.167 0 12.998 5.831 12.998 12.998v17.533h30V42.998C326.075 19.289 306.786 0 283.077 0h-44.189c-23.709 0-42.998 19.289-42.998 42.998v17.533h30z" fill="#B2B7BF" data-original="#000000"/>
</svg>
